<?xml version="1.0" standalone="no"?>
<!DOCTYPE svg PUBLIC "-//W3C//DTD SVG 20010904//EN"
 "http://www.w3.org/TR/2001/REC-SVG-20010904/DTD/svg10.dtd">
<svg version="1.0" xmlns="http://www.w3.org/2000/svg"
 width="280.000000pt" height="280.000000pt" viewBox="0 0 280.000000 280.000000"
 preserveAspectRatio="xMidYMid meet">
<metadata>
Created by potrace 1.11, written by Peter Selinger 2001-2013
</metadata>
<g transform="translate(0.000000,280.000000) scale(0.100000,-0.100000)"
fill="#000000" stroke="none">
<path d="M1342 2578 c-31 -107 -167 -371 -205 -399 -5 -3 -7 -9 -5 -11 1 -3
-7 -18 -19 -34 -12 -16 -43 -58 -70 -94 -57 -77 -70 -94 -101 -128 -12 -14
-41 -48 -65 -75 -23 -28 -53 -63 -67 -77 -14 -14 -37 -42 -51 -60 -15 -19 -38
-48 -52 -65 -25 -28 -132 -202 -132 -214 0 -3 -3 -10 -6 -16 -4 -5 -12 -28
-19 -50 -7 -22 -17 -46 -23 -52 -5 -7 -7 -13 -4 -13 3 0 0 -21 -7 -47 -21 -85
-19 -229 7 -343 5 -24 39 -124 46 -135 3 -5 6 -12 6 -15 0 -3 20 -37 45 -75
25 -39 46 -74 48 -78 8 -17 119 -126 175 -171 89 -71 279 -158 339 -155 12 0
-25 18 -47 23 -18 3 -139 67 -156 82 -8 8 -19 14 -23 14 -15 0 -108 87 -156
147 -161 197 -211 519 -118 753 47 120 124 252 183 315 11 12 32 37 47 57 15
20 34 43 42 51 8 8 13 17 10 20 -3 2 4 7 16 10 11 3 20 1 20 -3 0 -12 -29 -40
-41 -40 -6 0 -8 -4 -5 -9 4 -5 3 -11 -1 -13 -20 -9 -148 -249 -158 -295 -2
-10 -6 -30 -10 -44 l-6 -26 58 9 c54 8 149 32 183 45 8 4 17 7 20 7 3 1 34 17
70 36 95 51 198 157 249 255 66 127 85 220 86 410 0 169 -5 219 -36 355 -44
197 -50 209 -67 148z"/>
<path d="M1544 2093 c1 -200 -17 -300 -81 -430 -24 -51 -48 -93 -53 -93 -5 0
-11 -9 -15 -20 -7 -22 -161 -180 -214 -220 -18 -14 -38 -30 -44 -35 -7 -6 -46
-37 -87 -70 -96 -76 -181 -164 -206 -212 -10 -21 -22 -40 -25 -43 -5 -4 -14
-33 -26 -80 -17 -73 21 -216 72 -267 7 -7 23 -29 35 -48 12 -20 24 -34 26 -32
3 2 -2 30 -11 63 -30 115 -17 226 36 314 31 51 42 61 152 143 42 31 111 83
153 114 90 67 220 194 264 258 29 42 81 138 87 160 58 217 46 370 -46 578
l-17 39 0 -119z"/>
<path d="M1737 1837 c4 -223 -56 -377 -214 -553 -29 -32 -188 -164 -269 -224
-46 -34 -139 -114 -156 -135 -77 -95 -93 -134 -93 -225 0 -82 6 -117 28 -170
8 -19 17 -44 21 -54 10 -28 17 -14 23 41 10 110 52 211 115 280 36 39 130 112
222 173 71 47 189 151 250 219 48 54 118 186 134 251 20 82 24 166 12 246 -11
75 -53 221 -68 236 -4 4 -6 -34 -5 -85z"/>
<path d="M1857 1830 c18 -62 26 -117 30 -205 4 -100 9 -130 30 -179 41 -95 53
-154 53 -267 0 -172 -53 -307 -170 -432 -140 -149 -366 -224 -564 -187 -37 7
-69 11 -70 9 -2 -2 -6 -46 -8 -97 l-3 -93 78 -24 c43 -14 91 -25 107 -25 28 0
90 -49 90 -72 0 -11 35 -7 128 13 45 9 48 12 66 60 15 44 23 53 61 70 47 21
81 18 122 -9 20 -12 26 -12 55 9 90 62 93 67 93 135 0 58 3 66 33 96 27 28 40
33 84 34 58 2 70 13 108 95 l22 45 -26 39 c-30 44 -34 94 -10 135 18 29 62 60
87 60 17 0 27 49 26 130 0 54 0 55 -41 75 -82 40 -99 130 -38 195 17 18 30 36
30 41 0 5 -14 40 -31 78 l-31 69 -43 -2 c-58 -1 -83 18 -173 135 -40 52 -83
108 -96 124 l-24 30 25 -85z"/>
</g>
</svg>
